<?xml version="1.0" encoding="utf-8"?>
<!-- Generator: Adobe Illustrator 27.9.0, SVG Export Plug-In . SVG Version: 6.00 Build 0)  -->
<svg version="1.1" id="Calque_1" xmlns="http://www.w3.org/2000/svg" xmlns:xlink="http://www.w3.org/1999/xlink" x="0px" y="0px"
	 viewBox="0 0 20 20" style="enable-background:new 0 0 20 20;" xml:space="preserve">
<style type="text/css">
	.st0{fill:none;stroke:#EA5455;stroke-linecap:round;stroke-miterlimit:10;}
	.st1{fill:none;stroke:#000000;stroke-linecap:round;stroke-miterlimit:10;}
	.st2{stroke:#000000;stroke-linecap:round;stroke-miterlimit:10;}
	.st3{fill:none;stroke:#F4EB6D;stroke-linecap:round;stroke-miterlimit:10;}
	.st4{fill:none;stroke:#8FC263;stroke-linecap:round;stroke-miterlimit:10;}
</style>
<path class="st0" d="M17.54,10c0,4.16-3.37,7.54-7.54,7.54S2.46,14.16,2.46,10S5.84,2.46,10,2.46c0.9,0,1.77,0.16,2.57,0.45
	c1.57,0.57,2.89,1.64,3.78,3.02"/>
<circle class="st1" cx="10" cy="10" r="1.61"/>
<circle class="st2" cx="10.84" cy="10.4" r="0.21"/>
<path class="st3" d="M10,15.87c-3.24,0-5.87-2.63-5.87-5.87S6.76,4.13,10,4.13s5.87,2.63,5.87,5.87c0,0.7-0.12,1.38-0.35,2
	c-0.44,1.22-1.28,2.25-2.35,2.94"/>
<path class="st4" d="M7.73,6.63c1.86-1.25,4.38-0.76,5.64,1.1s0.76,4.38-1.1,5.64s-4.38,0.76-5.64-1.1
	c-0.27-0.4-0.46-0.84-0.57-1.28c-0.22-0.87-0.14-1.79,0.21-2.6"/>
</svg>
